<?xml version="1.0" encoding="UTF-8" standalone="no"?>
<!-- Created with Inkscape (http://www.inkscape.org/) -->

<svg
   width="8.5in"
   height="11in"
   viewBox="0 0 215.90001 279.4"
   version="1.1"
   id="svg5"
   inkscape:version="1.1.2 (b8e25be8, 2022-02-05)"
   sodipodi:docname="Box Source.svg"
   xmlns:inkscape="http://www.inkscape.org/namespaces/inkscape"
   xmlns:sodipodi="http://sodipodi.sourceforge.net/DTD/sodipodi-0.dtd"
   xmlns="http://www.w3.org/2000/svg"
   xmlns:svg="http://www.w3.org/2000/svg">
  <sodipodi:namedview
     id="namedview7"
     pagecolor="#ffffff"
     bordercolor="#666666"
     borderopacity="1.0"
     inkscape:pageshadow="2"
     inkscape:pageopacity="0.0"
     inkscape:pagecheckerboard="0"
     inkscape:document-units="mm"
     showgrid="true"
     inkscape:snap-bbox="true"
     inkscape:zoom="1.1984315"
     inkscape:cx="109.72676"
     inkscape:cy="186.49376"
     inkscape:window-width="1920"
     inkscape:window-height="1027"
     inkscape:window-x="0"
     inkscape:window-y="25"
     inkscape:window-maximized="0"
     inkscape:current-layer="layer1"
     units="in">
    <inkscape:grid
       type="xygrid"
       id="grid824"
       units="mm"
       spacingx="0.1"
       spacingy="0.1"
       empspacing="10" />
  </sodipodi:namedview>
  <defs
     id="defs2" />
  <g
     inkscape:label="Top Face"
     inkscape:groupmode="layer"
     id="layer1"
     style="display:inline">
    <rect
       style="fill:none;fill-opacity:0.776471;stroke:#000000;stroke-width:0.001;stroke-miterlimit:4;stroke-dasharray:none;stroke-opacity:1"
       id="rect905"
       width="126.43835"
       height="136.43835"
       x="0.28082377"
       y="0.28082377"
       ry="7.3672509" />
    <g
       id="g4173"
       transform="translate(-29.999999,-29.999999)"
       style="fill:none;stroke:#000000;stroke-width:0.001;stroke-miterlimit:4;stroke-dasharray:none;stroke-opacity:1">
      <rect
         style="fill:none;fill-opacity:0.776471;stroke:#000000;stroke-width:0.00107925;stroke-miterlimit:4;stroke-dasharray:none;stroke-opacity:1"
         id="rect1187"
         height="10.198921"
         x="32.906773"
         y="36.077347"
         ry="7.2467692e-15"
         width="3.1989207" />
      <rect
         style="fill:none;fill-opacity:0.776471;stroke:#000000;stroke-width:0.00107918;stroke-miterlimit:4;stroke-dasharray:none;stroke-opacity:1"
         id="rect1187-4"
         width="3.198921"
         height="10.198921"
         x="32.906773"
         y="66.077347"
         ry="7.2467692e-15" />
      <ellipse
         style="fill:none;fill-opacity:0.776471;stroke:#000000;stroke-width:0.001;stroke-miterlimit:4;stroke-dasharray:none;stroke-opacity:1"
         id="path1517"
         cx="34.506233"
         cy="56.025173"
         rx="2.0192308"
         ry="2.0192311" />
    </g>
    <rect
       style="fill:none;fill-opacity:0.776471;stroke:#000000;stroke-width:0.00107918;stroke-miterlimit:4;stroke-dasharray:none;stroke-opacity:1"
       id="rect1910"
       width="3.198921"
       height="10.198921"
       x="120.88253"
       y="6.0773492"
       ry="7.2467692e-15" />
    <rect
       style="fill:none;fill-opacity:0.776471;stroke:#000000;stroke-width:0.00107918;stroke-miterlimit:4;stroke-dasharray:none;stroke-opacity:1"
       id="rect1912"
       width="3.198921"
       height="10.198921"
       x="120.88253"
       y="36.077347"
       ry="7.2467692e-15" />
    <ellipse
       style="fill:none;fill-opacity:0.776471;stroke:#000000;stroke-width:0.001;stroke-miterlimit:4;stroke-dasharray:none;stroke-opacity:1"
       id="ellipse1914"
       cx="122.48199"
       cy="25.987761"
       rx="2.0192308"
       ry="2.0192311" />
    <rect
       style="fill:none;fill-opacity:0.776471;stroke:#000000;stroke-width:0.00107918;stroke-miterlimit:4;stroke-dasharray:none;stroke-opacity:1"
       id="rect1998"
       width="3.198921"
       height="10.198921"
       x="3.0005391"
       y="91.077347"
       ry="7.2467692e-15" />
    <rect
       style="fill:none;fill-opacity:0.776471;stroke:#000000;stroke-width:0.00107918;stroke-miterlimit:4;stroke-dasharray:none;stroke-opacity:1"
       id="rect2000"
       width="3.198921"
       height="10.198921"
       x="3.0005391"
       y="121.07734"
       ry="7.2467692e-15" />
    <ellipse
       style="fill:none;fill-opacity:0.776471;stroke:#000000;stroke-width:0.001;stroke-miterlimit:4;stroke-dasharray:none;stroke-opacity:1"
       id="ellipse2002"
       cx="4.5999994"
       cy="110.98776"
       rx="2.0192311"
       ry="2.0192308" />
    <rect
       style="fill:none;fill-opacity:0.776471;stroke:#000000;stroke-width:0.00107918;stroke-miterlimit:4;stroke-dasharray:none;stroke-opacity:1"
       id="rect31393"
       width="3.1989207"
       height="10.198921"
       x="131.07735"
       y="-36.276264"
       ry="7.2467701e-15"
       transform="rotate(90)" />
    <rect
       style="fill:none;fill-opacity:0.776471;stroke:#000000;stroke-width:0.00107918;stroke-miterlimit:4;stroke-dasharray:none;stroke-opacity:1"
       id="rect31395"
       width="3.1989207"
       height="10.198921"
       x="131.07735"
       y="-101.27628"
       ry="7.2467701e-15"
       transform="rotate(90)" />
    <rect
       style="fill:none;fill-opacity:0.776471;stroke:#000000;stroke-width:0.00107918;stroke-miterlimit:4;stroke-dasharray:none;stroke-opacity:1"
       id="rect31397"
       width="3.198921"
       height="10.198921"
       x="3.0773454"
       y="-101.27628"
       ry="7.2467692e-15"
       transform="rotate(90)" />
    <rect
       style="fill:none;fill-opacity:0.776471;stroke:#000000;stroke-width:0.00107918;stroke-miterlimit:4;stroke-dasharray:none;stroke-opacity:1"
       id="rect31399"
       width="3.1989207"
       height="10.198921"
       x="3.0773454"
       y="-36.276264"
       ry="7.2467701e-15"
       transform="rotate(90)" />
    <rect
       style="fill:none;fill-opacity:0.776471;stroke:#000000;stroke-width:0.00107918;stroke-miterlimit:4;stroke-dasharray:none;stroke-opacity:1"
       id="rect2006"
       width="3.198921"
       height="10.198921"
       x="120.88253"
       y="91.077347"
       ry="7.2467692e-15" />
    <rect
       style="fill:none;fill-opacity:0.776471;stroke:#000000;stroke-width:0.00107918;stroke-miterlimit:4;stroke-dasharray:none;stroke-opacity:1"
       id="rect2008"
       width="3.198921"
       height="10.198921"
       x="120.88253"
       y="121.07734"
       ry="7.2467692e-15" />
    <ellipse
       style="fill:none;fill-opacity:0.776471;stroke:#000000;stroke-width:0.001;stroke-miterlimit:4;stroke-dasharray:none;stroke-opacity:1"
       id="ellipse2010"
       cx="122.48199"
       cy="110.98776"
       rx="2.0192308"
       ry="2.0192311" />
    <rect
       style="fill:none;fill-opacity:0.776471;stroke:#000000;stroke-width:0.001;stroke-miterlimit:4;stroke-dasharray:none;stroke-opacity:1"
       id="rect2036"
       width="50.830673"
       height="19.830671"
       x="37.705059"
       y="14.626842"
       ry="7.0452817e-15" />
    <ellipse
       style="fill:none;fill-opacity:0.776471;stroke:#000000;stroke-width:0.001;stroke-miterlimit:4;stroke-dasharray:none;stroke-opacity:1"
       id="path2142"
       cx="41.157127"
       cy="13.11667"
       rx="0.96244127"
       ry="0.96244138" />
    <ellipse
       style="fill:none;fill-opacity:0.776471;stroke:#000000;stroke-width:0.001;stroke-miterlimit:4;stroke-dasharray:none;stroke-opacity:1"
       id="circle2225"
       cx="85.058327"
       cy="13.11667"
       rx="0.96244138"
       ry="0.96244127" />
    <circle
       style="fill:none;fill-opacity:0.776471;stroke:#000000;stroke-width:0.001;stroke-miterlimit:4;stroke-dasharray:none;stroke-opacity:1"
       id="circle2231"
       cx="41.157127"
       cy="36.016663"
       r="0.96244138" />
    <circle
       style="fill:none;fill-opacity:0.776471;stroke:#000000;stroke-width:0.0751172;stroke-miterlimit:4;stroke-dasharray:none;stroke-opacity:1"
       id="circle2233"
       cx="85.65834"
       cy="36.016663"
       r="0" />
    <rect
       style="fill:none;fill-opacity:0.776471;stroke:#000000;stroke-width:0.00100761;stroke-miterlimit:4;stroke-dasharray:none;stroke-opacity:1"
       id="rect2038"
       width="60.198994"
       height="56.793991"
       x="33.300503"
       y="60.06945"
       ry="8.9676937e-15" />
    <g
       id="g3956"
       transform="matrix(1.0000019,0,0,1,-28.504405,-34.037059)"
       style="fill:none;stroke:#000000;stroke-width:0.001;stroke-miterlimit:4;stroke-dasharray:none;stroke-opacity:1">
      <ellipse
         style="fill:none;fill-opacity:0.776471;stroke:#000000;stroke-width:0.001;stroke-miterlimit:4;stroke-dasharray:none;stroke-opacity:1"
         id="path2270"
         cx="62"
         cy="93"
         rx="0.96244127"
         ry="0.96244138" />
      <ellipse
         style="fill:none;fill-opacity:0.776471;stroke:#000000;stroke-width:0.001;stroke-miterlimit:4;stroke-dasharray:none;stroke-opacity:1"
         id="circle2352"
         cx="122"
         cy="93"
         rx="0.96244127"
         ry="0.96244138" />
    </g>
    <g
       id="g3952"
       transform="matrix(1.0000019,0,0,1,-28.504405,-34.037059)"
       style="fill:none;stroke:#000000;stroke-width:0.001;stroke-miterlimit:4;stroke-dasharray:none;stroke-opacity:1">
      <ellipse
         style="fill:none;fill-opacity:0.776471;stroke:#000000;stroke-width:0.001;stroke-miterlimit:4;stroke-dasharray:none;stroke-opacity:1"
         id="circle2358"
         cx="62"
         cy="152"
         rx="0.96244127"
         ry="0.96244138" />
      <ellipse
         style="fill:none;fill-opacity:0.776471;stroke:#000000;stroke-width:0.001;stroke-miterlimit:4;stroke-dasharray:none;stroke-opacity:1"
         id="circle2360"
         cx="122"
         cy="152"
         rx="0.96244127"
         ry="0.96244138" />
    </g>
    <circle
       style="fill:none;fill-opacity:0.776471;stroke:#000000;stroke-width:0.001;stroke-miterlimit:4;stroke-dasharray:none;stroke-opacity:1"
       id="circle4285"
       cx="85.058327"
       cy="36.016663"
       r="0.96244138" />
    <text
       xml:space="preserve"
       style="font-style:normal;font-weight:normal;font-size:10.5833px;line-height:1.25;font-family:sans-serif;display:inline;fill:#000000;fill-opacity:1;stroke:none;stroke-width:0.264583"
       x="41.456558"
       y="52.889057"
       id="text19149"><tspan
         sodipodi:role="line"
         id="tspan19147"
         style="font-style:normal;font-variant:normal;font-weight:normal;font-stretch:normal;font-family:'Academy Engraved LET';-inkscape-font-specification:'Academy Engraved LET';stroke-width:0.264583"
         x="41.456558"
         y="52.889057">UniTimer</tspan></text>
  </g>
  <g
     inkscape:groupmode="layer"
     id="layer3"
     inkscape:label="Left Face"
     style="display:none">
    <path
       style="fill:none;stroke:#000000;stroke-width:0.001;stroke-linecap:butt;stroke-linejoin:miter;stroke-miterlimit:4;stroke-dasharray:none;stroke-opacity:1"
       d="M 3,128 H 18"
       id="path22285" />
    <path
       style="fill:none;stroke:#000000;stroke-width:0.001;stroke-linecap:butt;stroke-linejoin:miter;stroke-miterlimit:4;stroke-dasharray:none;stroke-opacity:1"
       d="m 18,128 v 3 h 20 v -1 -2 h 23 v -10 h -3 v -7.5 H 53.28925 53 v 1.1 h -3.2 v -1.1 H 45 v -5 h 4.8 v -1.1 H 53 v 1.1 h 5 v -7.500001 h 2.999999 V 88 H 58 V 43.000001 h 2.999999 V 33 H 58 v -7.5 h -5 v 1.1 H 49.8 V 25.5 H 45 v -5 h 4.8 V 19.4 H 53 v 1.1 H 53.289249 58 V 13 h 2.999999 V 3 H 38 V 0 H 18 V 3 H 3 V 13 H 0 v 10 h 3 c 0,28.314016 0,56.763337 0,85 -1.5259578,0 -0.8325773,0 -3,0 v 1 9 h 3 c 0,3.33333 0,6.66667 0,10"
       id="path22287"
       sodipodi:nodetypes="cccccccccccccccccccccccccccccccccccccccccccccccccccccccccccc" />
    <path
       style="fill:none;stroke:#000000;stroke-width:0.001;stroke-linecap:butt;stroke-linejoin:miter;stroke-miterlimit:4;stroke-dasharray:none;stroke-opacity:1"
       d="m 58,81.999999 v 0"
       id="path25190"
       sodipodi:nodetypes="cc" />
  </g>
  <g
     inkscape:groupmode="layer"
     id="layer5"
     inkscape:label="Bottom"
     style="display:none">
    <rect
       style="display:inline;fill:none;fill-opacity:0.776471;stroke:#000000;stroke-width:0.00107918;stroke-miterlimit:4;stroke-dasharray:none;stroke-opacity:1"
       id="rect31065"
       width="3.1989207"
       height="10.198921"
       x="2.8862846"
       y="-77.241531"
       ry="7.2467701e-15"
       transform="rotate(90)" />
    <rect
       style="display:inline;fill:none;fill-opacity:0.776471;stroke:#000000;stroke-width:0.00107918;stroke-miterlimit:4;stroke-dasharray:none;stroke-opacity:1"
       id="rect31067"
       width="3.1989207"
       height="10.198921"
       x="2.8862846"
       y="-47.241528"
       ry="7.2467701e-15"
       transform="rotate(90)" />
    <ellipse
       style="display:inline;fill:none;fill-opacity:0.776471;stroke:#000000;stroke-width:0.001;stroke-miterlimit:4;stroke-dasharray:none;stroke-opacity:1"
       id="ellipse31069"
       cx="4.485745"
       cy="-57.065258"
       rx="2.0192311"
       ry="2.0192308"
       transform="rotate(90)" />
    <rect
       style="display:inline;fill:none;fill-opacity:0.776471;stroke:#000000;stroke-width:0.00107918;stroke-miterlimit:4;stroke-dasharray:none;stroke-opacity:1"
       id="rect31159"
       width="3.1989207"
       height="10.198921"
       x="130.92303"
       y="-56.276268"
       ry="7.2467701e-15"
       transform="rotate(90)" />
    <rect
       style="display:inline;fill:none;fill-opacity:0.776471;stroke:#000000;stroke-width:0.00107918;stroke-miterlimit:4;stroke-dasharray:none;stroke-opacity:1"
       id="rect31161"
       width="3.1989207"
       height="10.198921"
       x="130.92303"
       y="-26.276272"
       ry="7.2467701e-15"
       transform="rotate(90)" />
    <ellipse
       style="display:inline;fill:none;fill-opacity:0.776471;stroke:#000000;stroke-width:0.001;stroke-miterlimit:4;stroke-dasharray:none;stroke-opacity:1"
       id="ellipse31163"
       cx="132.52249"
       cy="-36.100002"
       rx="2.0192311"
       ry="2.0192308"
       transform="rotate(90)" />
    <rect
       style="display:inline;fill:none;fill-opacity:0.776471;stroke:#000000;stroke-width:0.00107918;stroke-miterlimit:4;stroke-dasharray:none;stroke-opacity:1"
       id="rect31503"
       width="3.198921"
       height="10.198921"
       x="-6.2762656"
       y="-26.276266"
       ry="7.2467692e-15"
       transform="scale(-1)" />
    <rect
       style="display:inline;fill:none;fill-opacity:0.776471;stroke:#000000;stroke-width:0.00107918;stroke-miterlimit:4;stroke-dasharray:none;stroke-opacity:1"
       id="rect31505"
       width="3.198921"
       height="10.198921"
       x="-6.2762656"
       y="-121.27627"
       ry="7.2467692e-15"
       transform="scale(-1)" />
    <rect
       style="display:inline;fill:none;fill-opacity:0.776471;stroke:#000000;stroke-width:0.00107918;stroke-miterlimit:4;stroke-dasharray:none;stroke-opacity:1"
       id="rect31507"
       width="3.198921"
       height="10.198921"
       x="-124.27628"
       y="-121.27627"
       ry="7.2467692e-15"
       transform="scale(-1)" />
    <rect
       style="display:inline;fill:none;fill-opacity:0.776471;stroke:#000000;stroke-width:0.00107918;stroke-miterlimit:4;stroke-dasharray:none;stroke-opacity:1"
       id="rect31509"
       width="3.198921"
       height="10.198921"
       x="-124.27628"
       y="-26.276266"
       ry="7.2467692e-15"
       transform="scale(-1)" />
    <rect
       style="display:inline;fill:none;fill-opacity:0.776471;stroke:#000000;stroke-width:0.001;stroke-miterlimit:4;stroke-dasharray:none;stroke-opacity:1"
       id="rect1931"
       width="126.43835"
       height="136.43835"
       x="0.00050000002"
       y="0.00050000002"
       ry="7.3672509" />
    <ellipse
       style="display:inline;fill:none;fill-opacity:0.776471;stroke:#000000;stroke-width:0.001;stroke-miterlimit:4;stroke-dasharray:none;stroke-opacity:1"
       id="ellipse1557"
       cx="54.01973"
       cy="-68.01973"
       rx="2.0192311"
       ry="2.0192308"
       transform="rotate(90)" />
  </g>
  <g
     inkscape:groupmode="layer"
     id="layer8"
     inkscape:label="Front Face"
     style="display:none">
    <path
       style="display:inline;fill:none;stroke:#000000;stroke-width:0.001;stroke-linecap:butt;stroke-linejoin:miter;stroke-miterlimit:4;stroke-dasharray:none;stroke-opacity:1"
       d="m 68,58 v 3 h 9.9875 v -3 h 7.496751 v -5 h -1.1 v -3.2 h 1.1 V 45 h 5 v 4.8 h 1.1 V 53 h -1.1 V 53.28925 58 H 97.9875 v 2.999999 h 10 V 58 H 121 V 43.000001 h -3 V 23 h 3 V 3 H 97.999999 V 0 H 88 V 3 H 33 V 0 H 23 V 3 H 0 V 23 H 3 V 43.000001 H 0 V 58 Z"
       id="path34522"
       sodipodi:nodetypes="cccccccccccccccccccccccccccccccccccccccccc" />
    <path
       style="fill:none;stroke:#000000;stroke-width:0.001;stroke-linecap:butt;stroke-linejoin:miter;stroke-miterlimit:4;stroke-dasharray:none;stroke-opacity:1"
       d="m 64.000291,47.999999 v -20 h -21 v 20 z"
       id="path35581" />
  </g>
  <g
     inkscape:groupmode="layer"
     id="layer7"
     inkscape:label="Back Face"
     style="display:none">
    <path
       style="display:inline;fill:none;stroke:#000000;stroke-width:0.001;stroke-linecap:butt;stroke-linejoin:miter;stroke-miterlimit:4;stroke-dasharray:none;stroke-opacity:1"
       d="M 5.0000002e-4,23.0005 H 3.0005 v 20 H 5.0000002e-4 v 15 L 33.94167,58 v 3 l 10.01361,5e-4 v -3 h 7.49676 v -5 h -1.1 v -3.2 h 1.1 v -4.8 h 5 v 4.8 h 1.1 v 3.2 h -1.1 v 0.28925 4.71075 h 7.50324 v 3 h 10 v -3 h 47.04522 v -15 h -3 v -20 h 3 v -20 h -23 V 5.0000002e-4 h -10 V 3.0005 h -55 V 5.0000002e-4 h -10 V 3.0005 H 5.0000002e-4 Z"
       id="path31548-5"
       sodipodi:nodetypes="cccccccccccccccccccccccccccccccccccccccccc" />
    <path
       style="display:inline;fill:none;stroke:#000000;stroke-width:0.001;stroke-linecap:butt;stroke-linejoin:miter;stroke-miterlimit:4;stroke-dasharray:none;stroke-opacity:1"
       d="m 23.0005,23.0005 h 15 v 10 h -15 z"
       id="path31550-0" />
    <path
       style="display:inline;fill:none;stroke:#000000;stroke-width:0.001;stroke-linecap:butt;stroke-linejoin:miter;stroke-miterlimit:4;stroke-dasharray:none;stroke-opacity:1"
       d="m 53.13279,23.0005 h 15 v 10 h -15 z"
       id="path31632-1" />
    <path
       style="display:inline;fill:none;stroke:#000000;stroke-width:0.001;stroke-linecap:butt;stroke-linejoin:miter;stroke-miterlimit:4;stroke-dasharray:none;stroke-opacity:1"
       d="m 83.13279,23.0005 h 15 v 10 h -15 z"
       id="path31634-0" />
  </g>
  <g
     inkscape:groupmode="layer"
     id="layer4"
     inkscape:label="Right Face"
     style="display:none">
    <path
       id="rect878"
       style="display:inline;fill:none;fill-opacity:0.776471;stroke:#000000;stroke-width:0.001;stroke-miterlimit:4;stroke-dasharray:none"
       d="M 3.1015277,118.20051 V 110.952 c 1.8985045,-0.0113 3.8001095,-0.0166 5.6984724,-0.0166 v 1.1 H 12 v -1.1 h 4.8 v -5 H 12 v -1.1 H 8.8000001 v 1.1 H 8.5107505 c -1.8028469,0.0232 -3.6058805,-0.0103 -5.4092228,-0.006 v -7.828965 m 0,-9.8 L 2.9046903,43.050151 0,43 V 33 l 2.8608913,-0.0186 -0.031937,-7.341881 5.28443,-0.0042 v 1.099999 h 3.2000007 v -1.100019 h 4.8 v -5 h -4.8 V 19.535296 H 8.1133847 v 1.099999 h -0.28926 c -1.59663,-0.03155 -3.19494,-0.0033 -4.79307,-0.0073 L 3,13 H 0 L 0.10152767,3.1005145 c 7.63573003,4.4e-5 15.36427033,-7e-5 23.00000033,0 -0.0178,-1.00018 0.0357,-2.000206 0,-3 h 20 v 3 c 2.86247,0.125027 11.11303,-4.7e-5 15,0 C 58.103528,6.5005095 58.15034,9.199744 58.1,13.2 l 3.001528,5.15e-4 v 10 L 58.1,23.2 c 0.04878,28.449824 0.0015,56.700433 0.0015,85.00051 v 0 h 3 v 10 h -3 c 2.7e-4,3.29983 6.6e-4,6.59966 10e-4,9.89949 -4.967,6e-5 -9.934,5.1e-4 -14.901,5.1e-4 v 3 h -20 v -3 c -6.7,-3e-4 -13.4000003,-6.6e-4 -20.1000003,-0.001"
       sodipodi:nodetypes="cccccccccccccccccccccccccccccccccccccccccccccccccccccccc" />
    <path
       style="display:inline;fill:none;stroke:#000000;stroke-width:0.00131025;stroke-linecap:butt;stroke-linejoin:miter;stroke-miterlimit:4;stroke-dasharray:none;stroke-opacity:1"
       d="M 48.335338,55.332807 H 14 v 23 h 34.335338 v -23"
       id="path10138" />
    <path
       style="display:inline;fill:none;stroke:#000000;stroke-width:0.001;stroke-linecap:butt;stroke-linejoin:miter;stroke-miterlimit:4;stroke-dasharray:none;stroke-opacity:1"
       d="M 3.3056877,128.10286 H 0.30568767 v -10 H 3.3056877"
       id="path10144" />
    <path
       style="display:inline;fill:none;stroke:#000000;stroke-width:0.001;stroke-linecap:butt;stroke-linejoin:miter;stroke-miterlimit:4;stroke-dasharray:none;stroke-opacity:1"
       d="M 3.2015277,98.200515 H 0.20152767 v -10 H 3.2015277"
       id="path10146" />
  </g>
  <g
     inkscape:groupmode="layer"
     id="layer6"
     inkscape:label="Text"
     style="display:none">
    <text
       xml:space="preserve"
       style="font-style:normal;font-weight:normal;font-size:10.5833px;line-height:1.25;font-family:sans-serif;fill:#000000;fill-opacity:1;stroke:none;stroke-width:0.264583"
       x="31.999998"
       y="23.324472"
       id="text16145"><tspan
         sodipodi:role="line"
         id="tspan16143"
         style="font-style:normal;font-variant:normal;font-weight:normal;font-stretch:normal;font-family:'Academy Engraved LET';-inkscape-font-specification:'Academy Engraved LET';stroke-width:0.264583"
         x="31.999998"
         y="23.324472">UniTimer 1</tspan></text>
  </g>
  <g
     inkscape:groupmode="layer"
     id="layer2"
     inkscape:label="Parts"
     style="display:none">
    <path
       style="fill:none;stroke:#000000;stroke-width:0.264583px;stroke-linecap:butt;stroke-linejoin:miter;stroke-opacity:1"
       d="m 0,13 h 5 v 1.1 H 8.1999999 V 13 H 13 V 7.9999998 H 8.1999999 V 6.8999999 H 5 C 5,7.2666666 5,7.6333333 5,8 H 4.7107504 0"
       id="path1003"
       sodipodi:nodetypes="ccccccccccccc" />
  </g>
</svg>
